<mxfile host="Electron" agent="Mozilla/5.0 (X11; Linux x86_64) AppleWebKit/537.36 (KHTML, like Gecko) draw.io/27.0.9 Chrome/134.0.6998.205 Electron/35.4.0 Safari/537.36" version="27.0.9">
  <diagram name="Page-1" id="vgIU9vmSR0smq_CQdH1k">
    <mxGraphModel dx="983" dy="603" grid="1" gridSize="10" guides="1" tooltips="1" connect="1" arrows="1" fold="1" page="1" pageScale="1" pageWidth="850" pageHeight="1100" math="0" shadow="0">
      <root>
        <mxCell id="0" />
        <mxCell id="1" parent="0" />
        <mxCell id="L2rrjrpnEy21ka1nWrZF-1" value="Usuario" style="shape=umlActor;verticalLabelPosition=bottom;verticalAlign=top;html=1;" parent="1" vertex="1">
          <mxGeometry x="40" y="180" width="30" height="60" as="geometry" />
        </mxCell>
        <mxCell id="L2rrjrpnEy21ka1nWrZF-2" value="Gestión de sesión de usuario" style="swimlane;whiteSpace=wrap;html=1;movable=1;resizable=1;rotatable=1;deletable=1;editable=1;locked=0;connectable=1;" parent="1" vertex="1">
          <mxGeometry x="110" y="20" width="440" height="390" as="geometry">
            <mxRectangle x="170" y="90" width="140" height="30" as="alternateBounds" />
          </mxGeometry>
        </mxCell>
        <mxCell id="L2rrjrpnEy21ka1nWrZF-3" value="Iniciar sesión" style="ellipse;whiteSpace=wrap;html=1;" parent="L2rrjrpnEy21ka1nWrZF-2" vertex="1">
          <mxGeometry x="60" y="90" width="120" height="60" as="geometry" />
        </mxCell>
        <mxCell id="L2rrjrpnEy21ka1nWrZF-4" value="Cerrar sesión" style="ellipse;whiteSpace=wrap;html=1;" parent="L2rrjrpnEy21ka1nWrZF-2" vertex="1">
          <mxGeometry x="120" y="190" width="120" height="60" as="geometry" />
        </mxCell>
        <mxCell id="L2rrjrpnEy21ka1nWrZF-7" value="Recuperar su contraseña" style="ellipse;whiteSpace=wrap;html=1;" parent="L2rrjrpnEy21ka1nWrZF-2" vertex="1">
          <mxGeometry x="80" y="280" width="120" height="60" as="geometry" />
        </mxCell>
        <mxCell id="L2rrjrpnEy21ka1nWrZF-8" style="edgeStyle=orthogonalEdgeStyle;rounded=0;orthogonalLoop=1;jettySize=auto;html=1;exitX=0.5;exitY=1;exitDx=0;exitDy=0;" parent="L2rrjrpnEy21ka1nWrZF-2" source="L2rrjrpnEy21ka1nWrZF-7" target="L2rrjrpnEy21ka1nWrZF-7" edge="1">
          <mxGeometry relative="1" as="geometry" />
        </mxCell>
        <mxCell id="L2rrjrpnEy21ka1nWrZF-10" value="Iniciar sesión&lt;br&gt;con Google" style="ellipse;whiteSpace=wrap;html=1;" parent="L2rrjrpnEy21ka1nWrZF-2" vertex="1">
          <mxGeometry x="270" y="50" width="150" height="60" as="geometry" />
        </mxCell>
        <mxCell id="L2rrjrpnEy21ka1nWrZF-11" value="" style="endArrow=block;dashed=1;endFill=0;endSize=12;html=1;rounded=0;exitX=0;exitY=0.667;exitDx=0;exitDy=0;exitPerimeter=0;entryX=1;entryY=0.333;entryDx=0;entryDy=0;entryPerimeter=0;" parent="L2rrjrpnEy21ka1nWrZF-2" source="L2rrjrpnEy21ka1nWrZF-10" target="L2rrjrpnEy21ka1nWrZF-3" edge="1">
          <mxGeometry width="160" relative="1" as="geometry">
            <mxPoint x="180" y="150" as="sourcePoint" />
            <mxPoint x="340" y="150" as="targetPoint" />
          </mxGeometry>
        </mxCell>
        <mxCell id="L2rrjrpnEy21ka1nWrZF-14" value="extend" style="edgeLabel;html=1;align=center;verticalAlign=middle;resizable=0;points=[];" parent="L2rrjrpnEy21ka1nWrZF-11" vertex="1" connectable="0">
          <mxGeometry x="0.0196" y="-1" relative="1" as="geometry">
            <mxPoint as="offset" />
          </mxGeometry>
        </mxCell>
        <mxCell id="L2rrjrpnEy21ka1nWrZF-5" value="" style="endArrow=none;html=1;rounded=0;entryX=0.004;entryY=0.676;entryDx=0;entryDy=0;entryPerimeter=0;" parent="1" source="L2rrjrpnEy21ka1nWrZF-1" target="L2rrjrpnEy21ka1nWrZF-3" edge="1">
          <mxGeometry width="50" height="50" relative="1" as="geometry">
            <mxPoint x="60" y="190" as="sourcePoint" />
            <mxPoint x="160" y="150" as="targetPoint" />
          </mxGeometry>
        </mxCell>
        <mxCell id="L2rrjrpnEy21ka1nWrZF-6" value="" style="endArrow=none;html=1;rounded=0;entryX=0;entryY=0.5;entryDx=0;entryDy=0;" parent="1" source="L2rrjrpnEy21ka1nWrZF-1" target="L2rrjrpnEy21ka1nWrZF-4" edge="1">
          <mxGeometry width="50" height="50" relative="1" as="geometry">
            <mxPoint x="60" y="220" as="sourcePoint" />
            <mxPoint x="220" y="240" as="targetPoint" />
          </mxGeometry>
        </mxCell>
        <mxCell id="L2rrjrpnEy21ka1nWrZF-9" value="" style="endArrow=none;html=1;rounded=0;entryX=0;entryY=0.333;entryDx=0;entryDy=0;entryPerimeter=0;" parent="1" source="L2rrjrpnEy21ka1nWrZF-1" target="L2rrjrpnEy21ka1nWrZF-7" edge="1">
          <mxGeometry width="50" height="50" relative="1" as="geometry">
            <mxPoint x="50" y="240" as="sourcePoint" />
            <mxPoint x="200" y="310" as="targetPoint" />
          </mxGeometry>
        </mxCell>
      </root>
    </mxGraphModel>
  </diagram>
</mxfile>
